<?xml version="1.0" standalone="no"?>
<!DOCTYPE svg PUBLIC "-//W3C//DTD SVG 20010904//EN"
 "http://www.w3.org/TR/2001/REC-SVG-20010904/DTD/svg10.dtd">
<svg version="1.0" xmlns="http://www.w3.org/2000/svg"
 width="304.000000pt" height="372.000000pt" viewBox="0 0 304.000000 372.000000"
 preserveAspectRatio="xMidYMid meet">
<metadata>
Created by potrace 1.16, written by Peter Selinger 2001-2019
</metadata>
<g transform="translate(0.000000,372.000000) scale(0.100000,-0.100000)"
fill="#000000" stroke="none">
<path d="M0 3651 c0 -60 2 -69 20 -74 11 -3 20 -13 20 -22 0 -13 6 -15 28 -11
20 5 34 0 55 -19 15 -14 27 -30 27 -34 0 -5 9 -11 20 -14 11 -3 23 -13 27 -24
3 -10 13 -22 20 -26 7 -5 10 -13 7 -19 -4 -6 -3 -8 3 -5 6 4 20 -1 31 -11 11
-10 33 -27 47 -38 46 -33 105 -96 99 -105 -3 -5 -12 -9 -20 -9 -18 0 -18 -14
1 -30 8 -7 15 -19 15 -26 0 -8 5 -14 11 -14 6 0 9 7 6 14 -4 10 -1 13 9 9 11
-4 12 -9 5 -16 -6 -6 -11 -19 -11 -29 0 -9 -20 -37 -45 -61 -42 -42 -57 -66
-76 -130 -6 -22 -5 -28 5 -24 11 5 12 0 2 -24 -8 -24 -8 -32 3 -38 7 -5 10
-14 6 -20 -5 -9 -10 -9 -21 0 -15 12 -15 11 -18 -46 -1 -11 2 -33 6 -49 5 -18
2 -38 -7 -57 -8 -15 -15 -42 -15 -60 l0 -31 -130 4 -130 4 0 -887 c0 -701 3
-888 13 -892 9 -4 9 -6 0 -6 -10 -1 -13 -91 -13 -416 l0 -415 1010 0 1010 0 0
23 c0 18 -2 19 -10 7 -7 -10 -10 -11 -10 -2 0 7 7 15 16 19 9 3 14 13 11 24
-3 11 -2 17 2 15 4 -3 7 10 7 29 0 19 5 44 11 57 25 52 32 86 29 136 -2 40 2
57 16 72 10 11 14 20 9 20 -5 0 -13 -5 -16 -11 -5 -6 -12 -4 -22 8 -13 17 -14
16 -8 -10 5 -26 5 -27 -14 -10 -20 16 -19 17 12 60 30 43 50 45 28 4 -14 -25
-14 -31 -1 -31 6 0 10 7 10 16 0 8 4 13 8 10 5 -3 10 18 11 47 1 28 6 54 10
57 13 8 33 51 27 57 -3 4 -14 -1 -25 -11 -18 -16 -19 -16 -30 15 -6 17 -8 35
-6 39 3 5 1 11 -4 15 -7 4 -7 15 -1 31 6 14 10 37 10 51 0 18 4 24 15 19 17
-6 21 19 5 29 -14 9 -6 115 9 125 8 5 9 14 2 33 -7 17 -7 28 0 32 5 4 -1 15
-13 25 -13 10 -20 21 -17 25 4 3 14 -2 24 -11 17 -17 17 -16 9 17 -4 19 -8 45
-8 59 0 14 -5 28 -10 32 -6 4 -3 16 9 29 18 20 18 22 2 16 -9 -4 -17 -2 -17 3
0 6 9 10 21 10 18 0 20 4 14 29 -4 18 -2 32 6 37 7 4 10 3 6 -3 -4 -6 1 -14
10 -17 9 -4 20 -1 24 6 4 7 11 10 14 6 4 -3 15 2 24 11 30 30 15 190 -18 192
-10 0 -11 2 -4 6 7 2 13 10 13 16 0 5 -3 7 -7 4 -9 -9 -54 73 -47 85 3 5 -2
15 -12 23 -11 7 -16 17 -11 21 4 4 -2 18 -14 30 -18 19 -20 30 -15 68 4 25 12
46 18 46 6 0 8 -10 4 -25 -4 -14 -2 -25 4 -25 5 0 10 4 10 9 0 13 80 23 94 12
17 -14 33 0 31 29 -2 28 -30 165 -46 225 -6 22 -12 50 -13 61 -1 12 -10 30
-20 39 -9 10 -15 24 -11 33 7 18 -22 52 -45 52 -9 0 -26 10 -38 23 -12 13 -38
29 -57 37 -19 7 -32 17 -29 22 3 4 -2 8 -10 8 -8 0 -20 8 -25 19 -8 14 -5 23
12 39 23 21 97 55 97 44 0 -3 5 -1 12 6 20 20 34 14 33 -15 0 -16 2 -30 5 -33
7 -5 96 -171 150 -277 17 -35 39 -68 48 -75 9 -7 18 -28 19 -47 1 -19 8 -38
14 -42 6 -4 8 -12 5 -18 -4 -6 -3 -11 3 -11 6 0 10 -15 9 -32 -1 -18 -1 -59 0
-90 2 -46 5 -58 18 -58 12 0 15 -6 11 -22 -3 -13 -9 -47 -13 -75 -6 -49 -5
-53 14 -53 37 0 45 -73 12 -118 -11 -15 -23 -52 -28 -84 -8 -53 -7 -57 15 -67
23 -11 23 -11 17 44 -6 51 -5 55 12 49 33 -12 45 -26 39 -45 -14 -44 30 -93
61 -68 28 23 65 97 100 201 41 120 51 190 34 242 -15 47 -56 96 -81 96 -24 0
-26 45 -4 77 8 12 18 54 21 95 3 40 7 78 9 85 2 7 0 15 -5 18 -6 4 -10 13 -10
21 0 8 3 13 8 11 4 -3 7 7 8 21 0 15 4 36 8 47 5 14 3 13 -5 -2 -14 -28 -33
-30 -26 -4 2 10 0 27 -6 37 -8 16 -7 17 4 6 17 -15 31 -15 52 1 15 10 16 19 8
62 -7 36 -6 54 2 64 9 11 9 15 0 18 -7 3 -10 15 -7 31 3 15 -2 68 -11 117 -10
50 -18 104 -19 120 -4 46 -29 107 -38 92 -5 -7 -8 -2 -8 14 0 15 -7 32 -16 40
-8 7 -13 21 -10 32 6 24 -22 70 -39 63 -7 -2 -23 6 -35 19 -16 17 -18 24 -8
28 9 4 8 6 -3 6 -21 1 -43 27 -30 35 11 7 -44 96 -84 137 -14 15 -30 42 -36
60 -13 37 -56 89 -75 89 -6 0 -14 9 -17 20 -3 11 -14 20 -24 20 -11 0 -32 14
-48 30 -19 19 -39 30 -57 30 -22 0 -29 6 -34 27 -16 62 -91 153 -127 153 -5 0
-40 16 -78 35 -44 22 -85 35 -108 35 -21 0 -60 10 -86 21 -39 17 -60 20 -107
15 l-58 -6 0 75 0 75 -745 0 -745 0 0 -69z m1569 -1978 c1 5 12 -4 25 -20 30
-36 47 -99 47 -172 0 -33 10 -84 25 -127 26 -76 30 -109 14 -119 -5 -3 -10 -2
-10 4 0 13 -73 33 -93 25 -28 -10 -58 55 -59 126 -2 273 0 331 13 347 12 14
15 10 25 -28 7 -24 12 -40 13 -36z"/>
<path d="M2229 715 c-23 -48 -48 -89 -55 -92 -7 -2 -10 -11 -7 -19 7 -18 -6
-101 -58 -374 -21 -112 -39 -210 -39 -217 0 -10 100 -13 485 -13 l485 0 0 235
c0 200 -2 236 -15 241 -8 4 -13 10 -10 14 3 5 -4 11 -15 15 -11 3 -20 11 -20
16 0 5 -8 13 -17 17 -10 4 -47 23 -83 43 -36 20 -83 42 -105 49 -22 7 -44 16
-50 20 -27 19 -229 59 -297 60 -23 0 -47 8 -65 23 -15 13 -43 33 -60 46 l-33
22 -41 -86z"/>
</g>
</svg>
